<mxfile host="app.diagrams.net" modified="2023-10-30T16:35:12.495Z" agent="Mozilla/5.0 (Windows NT 10.0; Win64; x64) AppleWebKit/537.36 (KHTML, like Gecko) Chrome/118.0.0.0 Safari/537.36" version="22.0.8" etag="NTlPtYfJCt3URg2Cmr7-" type="github">
  <diagram name="Seite-1" id="TnMFVCWzhW_BCQsXPfKQ">
    <mxGraphModel>
      <root>
        <mxCell id="0" />
        <mxCell id="1" parent="0" />
      </root>
    </mxGraphModel>
  </diagram>
</mxfile>
